<svg width="80" height="80" viewBox="0 0 80 80" fill="none" xmlns="http://www.w3.org/2000/svg">
<mask id="mask0_897_6258" style="mask-type:alpha" maskUnits="userSpaceOnUse" x="0" y="0" width="80" height="80">
<path fill-rule="evenodd" clip-rule="evenodd" d="M56.7295 79.4544C57.9895 79.9453 59.4262 79.9139 60.698 79.3019L77.1686 71.3765C78.8994 70.5437 80 68.7921 80 66.8705V13.1314C80 11.2098 78.8994 9.45817 77.1687 8.62537L60.698 0.699737C59.029 -0.103371 57.0757 0.0933399 55.6108 1.15829C55.4016 1.31042 55.2022 1.48028 55.0152 1.66746L23.4841 30.4339L9.74976 20.0084C8.4712 19.0379 6.6829 19.1175 5.49546 20.1976L1.09042 24.2047C-0.362041 25.5259 -0.363706 27.8109 1.08682 29.1343L12.9977 40.0008L1.08682 50.8673C-0.363706 52.1907 -0.362041 54.4758 1.09042 55.797L5.49546 59.804C6.6829 60.8842 8.4712 60.9637 9.74976 59.9931L23.4841 49.5677L55.0152 78.3341C55.514 78.8332 56.0997 79.2091 56.7295 79.4544ZM60.0122 21.8399L36.0873 40.0008L60.0122 58.1617V21.8399Z" fill="white"/>
</mask>
<g mask="url(#mask0_897_6258)">
<path d="M77.1689 8.63703L60.6853 0.700507C58.7773 -0.218145 56.4972 0.169362 54.9998 1.66674L1.03866 50.8666C-0.412758 52.1899 -0.411089 54.475 1.04226 55.7962L5.44997 59.8033C6.63814 60.8834 8.42756 60.963 9.70684 59.9925L74.6885 10.696C76.8686 9.04215 79.9998 10.597 79.9998 13.3334V13.1421C79.9998 11.2213 78.8995 9.47031 77.1689 8.63703Z" fill="#0065A9"/>
<g filter="url(#filter0_d_897_6258)">
<path d="M77.1689 71.3622L60.6853 79.2988C58.7773 80.2176 56.4972 79.8299 54.9998 78.3325L1.03866 29.1327C-0.412758 27.8094 -0.411089 25.5242 1.04226 24.203L5.44997 20.196C6.63814 19.1158 8.42756 19.0363 9.70684 20.0068L74.6885 69.3033C76.8686 70.9571 79.9998 69.4022 79.9998 66.6659V66.8573C79.9998 68.778 78.8995 70.5289 77.1689 71.3622Z" fill="#007ACC"/>
</g>
<g filter="url(#filter1_d_897_6258)">
<path d="M60.6882 79.3009C58.7796 80.2191 56.4995 79.8307 55.002 78.3331C56.8471 80.1783 60.002 78.8715 60.002 76.2621V3.73756C60.002 1.12817 56.8471 -0.178631 55.002 1.66649C56.4995 0.168975 58.7796 -0.219079 60.6882 0.69876L77.1689 8.62441C78.9007 9.45721 80.002 11.2088 80.002 13.1304V66.8695C80.002 68.7911 78.9007 70.5427 77.1688 71.3755L60.6882 79.3009Z" fill="#1F9CF0"/>
</g>
<g style="mix-blend-mode:overlay" opacity="0.25">
<path fill-rule="evenodd" clip-rule="evenodd" d="M56.6807 79.4535C57.9407 79.9443 59.3775 79.9128 60.6492 79.3009L77.1198 71.3756C78.8505 70.5428 79.9512 68.7912 79.9512 66.8695V13.1304C79.9512 11.2088 78.8506 9.45716 77.1199 8.62436L60.6492 0.698761C58.9802 -0.104347 57.0268 0.0923638 55.562 1.15731C55.3528 1.30944 55.1534 1.4793 54.9664 1.66648L23.4352 30.4329L9.70092 20.0075C8.42244 19.0369 6.63408 19.1165 5.44664 20.1966L1.0416 24.2036C-0.41087 25.5249 -0.412535 27.81 1.038 29.1333L12.9488 39.9998L1.038 50.8664C-0.412535 52.1897 -0.41087 54.4748 1.0416 55.796L5.44664 59.803C6.63408 60.8832 8.42244 60.9627 9.70092 59.9922L23.4352 49.5667L54.9664 78.3332C55.4652 78.8322 56.0508 79.2081 56.6807 79.4535ZM59.9633 21.8389L36.0384 39.9998L59.9633 58.1608V21.8389Z" fill="url(#paint0_linear_897_6258)"/>
</g>
</g>
<defs>
<filter id="filter0_d_897_6258" x="-6.7155" y="12.6624" width="93.3822" height="73.7962" filterUnits="userSpaceOnUse" color-interpolation-filters="sRGB">
<feFlood flood-opacity="0" result="BackgroundImageFix"/>
<feColorMatrix in="SourceAlpha" type="matrix" values="0 0 0 0 0 0 0 0 0 0 0 0 0 0 0 0 0 0 127 0" result="hardAlpha"/>
<feOffset/>
<feGaussianBlur stdDeviation="3.33334"/>
<feColorMatrix type="matrix" values="0 0 0 0 0 0 0 0 0 0 0 0 0 0 0 0 0 0 0.25 0"/>
<feBlend mode="overlay" in2="BackgroundImageFix" result="effect1_dropShadow_897_6258"/>
<feBlend mode="normal" in="SourceGraphic" in2="effect1_dropShadow_897_6258" result="shape"/>
</filter>
<filter id="filter1_d_897_6258" x="48.3353" y="-6.46062" width="38.3333" height="92.9212" filterUnits="userSpaceOnUse" color-interpolation-filters="sRGB">
<feFlood flood-opacity="0" result="BackgroundImageFix"/>
<feColorMatrix in="SourceAlpha" type="matrix" values="0 0 0 0 0 0 0 0 0 0 0 0 0 0 0 0 0 0 127 0" result="hardAlpha"/>
<feOffset/>
<feGaussianBlur stdDeviation="3.33334"/>
<feColorMatrix type="matrix" values="0 0 0 0 0 0 0 0 0 0 0 0 0 0 0 0 0 0 0.25 0"/>
<feBlend mode="overlay" in2="BackgroundImageFix" result="effect1_dropShadow_897_6258"/>
<feBlend mode="normal" in="SourceGraphic" in2="effect1_dropShadow_897_6258" result="shape"/>
</filter>
<linearGradient id="paint0_linear_897_6258" x1="39.9512" y1="0.206054" x2="39.9512" y2="79.7936" gradientUnits="userSpaceOnUse">
<stop stop-color="white"/>
<stop offset="1" stop-color="white" stop-opacity="0"/>
</linearGradient>
</defs>
</svg>
